<svg width="64" height="64" viewBox="0 0 64 64" fill="none" xmlns="http://www.w3.org/2000/svg">
<rect width="64" height="64" rx="32" fill="#888888"/>
<path d="M51.269 24.6373L39.6752 23.541C38.9443 23.4746 38.3128 23.0095 38.0141 22.3118L33.8614 12.2458C33.197 10.5847 30.838 10.5847 30.1736 12.2458L26.0541 22.3118C25.7884 23.0095 25.1239 23.4746 24.3931 23.541L12.7989 24.6373C11.0714 24.8034 10.3737 26.9628 11.6693 28.1255L20.4065 35.7996C20.9713 36.298 21.2038 37.0288 21.0377 37.7597L18.4132 48.523C18.0146 50.2177 19.8418 51.6126 21.3699 50.716L31.0373 45.0348C31.6685 44.6694 32.4326 44.6694 33.0638 45.0348L42.7315 50.716C44.2597 51.6126 46.0869 50.2509 45.6879 48.523L43.0966 37.7597C42.9305 37.0288 43.1631 36.298 43.7278 35.7996L52.465 28.1255C53.7274 26.9628 52.9965 24.8034 51.269 24.6373Z" fill="white"/>
</svg>
